<svg xmlns="http://www.w3.org/2000/svg" viewBox="10000.804 2275.078 103.892 85.753"><defs><style>.a,.b{fill:#fff;}.a,.c{stroke:#000;}.c,.e{fill:none;}.d{stroke:none;}</style></defs><g transform="translate(5016 143)"><path class="a" d="M-.2-.2l6.634.147.195,8.784L0,8.588Z" transform="matrix(-0.719, 0.695, -0.695, -0.719, 5005.074, 2148.044)"/><path class="a" d="M22.566-.692A21.588,21.588,0,0,1,44.813,21.589,24.028,24.028,0,0,1,21.555,44.881,21.588,21.588,0,0,1-.692,22.6,24.028,24.028,0,0,1,22.566-.692Z" transform="matrix(0.695, 0.719, -0.719, 0.695, 5018.286, 2133.772)"/><path class="a" d="M-.2-.2l6.634.147.195,8.784L0,8.588Z" transform="matrix(-0.719, 0.695, -0.695, -0.719, 5041.866, 2184.135)"/><g class="a" transform="translate(4986.362 2168.645) rotate(-90)"><rect class="d" width="6.867" height="9.375"/><rect class="e" x="0.5" y="0.5" width="5.867" height="8.375"/></g><path class="a" d="M-.187-.187,6.451-.335l-.2,8.807L-.382,8.62Z" transform="matrix(0.695, 0.719, -0.719, 0.695, 5037.428, 2142.685)"/><path class="a" d="M-.187-.187,6.451-.335l-.2,8.807L-.382,8.62Z" transform="matrix(0.695, 0.719, -0.719, 0.695, 4999.36, 2177.927)"/><g class="a" transform="matrix(-0.017, 1, -1, -0.017, 5049.01, 2162.22)"><rect class="d" width="6.874" height="9.38"/><rect class="e" x="0.5" y="0.5" width="5.874" height="8.38"/></g><g class="a" transform="translate(5021.135 2195.178) rotate(180)"><rect class="d" width="7.169" height="8.98"/><rect class="e" x="0.5" y="0.5" width="6.169" height="7.98"/></g><g class="a" transform="translate(5021.102 2144.206) rotate(180)"><rect class="d" width="7.169" height="8.98"/><rect class="e" x="0.5" y="0.5" width="6.169" height="7.98"/></g><path class="a" d="M-.2-.2l6.634.147.195,8.784L0,8.588Z" transform="matrix(-0.719, 0.695, -0.695, -0.719, 5005.074, 2148.044)"/><g class="a" transform="translate(4986.362 2168.645) rotate(-90)"><rect class="d" width="6.867" height="9.375"/><rect class="e" x="0.5" y="0.5" width="5.867" height="8.375"/></g><path class="a" d="M-.187-.187,6.451-.335l-.2,8.807L-.382,8.62Z" transform="matrix(0.695, 0.719, -0.719, 0.695, 5037.428, 2142.685)"/><path class="a" d="M-.187-.187,6.451-.335l-.2,8.807L-.382,8.62Z" transform="matrix(0.695, 0.719, -0.719, 0.695, 4999.36, 2177.927)"/><g class="a" transform="matrix(-0.017, 1, -1, -0.017, 5049.01, 2162.22)"><rect class="d" width="6.874" height="9.38"/><rect class="e" x="0.5" y="0.5" width="5.874" height="8.38"/></g><g class="a" transform="translate(5021.135 2195.178) rotate(180)"><rect class="d" width="7.169" height="8.98"/><rect class="e" x="0.5" y="0.5" width="6.169" height="7.98"/></g><g class="a" transform="translate(5021.102 2144.206) rotate(180)"><rect class="d" width="7.169" height="8.98"/><rect class="e" x="0.5" y="0.5" width="6.169" height="7.98"/></g><path class="a" d="M-.2-.2l6.634.147.195,8.784L0,8.588Z" transform="matrix(-0.719, 0.695, -0.695, -0.719, 5041.866, 2184.135)"/><path class="b" d="M22.566-.692A21.588,21.588,0,0,1,44.813,21.589,24.028,24.028,0,0,1,21.555,44.881,21.588,21.588,0,0,1-.692,22.6,24.028,24.028,0,0,1,22.566-.692Z" transform="matrix(0.695, 0.719, -0.719, 0.695, 5018.286, 2133.772)"/><g class="a" transform="translate(5010 2157)"><circle class="d" cx="8" cy="8" r="8"/><circle class="e" cx="8" cy="8" r="7.5"/></g><g class="a" transform="translate(5013 2160)"><circle class="d" cx="5" cy="5" r="5"/><circle class="e" cx="5" cy="5" r="4.5"/></g><path class="c" d="M4898.817,2404.36l1.113.2,1.312.3,1.237.33,1.309.442.965.366,1.147.473.741.323,1.167.6.693.4.568.383.73.513.68.466" transform="translate(122 -262)"/><path class="c" d="M4914.969,2413.79a24.878,24.878,0,0,1,2.3,3.512l.7,1.523.662,1.936.335,1.437.382,2.006" transform="translate(122 -262)"/><path class="c" d="M4919.173,2430.669l-.264,1.505-.451,1.557-.541,1.5-.626,1.315-.841,1.565-.7,1.183-1.038,1.438" transform="translate(122 -262)"/><path class="c" d="M4909.818,2445.3c-1.643,1.122-1.754,1.176-1.754,1.176l-1.479.766-1.205.6-2.214.791-1.841.5-1.309.259-1.125.16" transform="translate(122 -262)"/><path class="c" d="M4892.228,2449.509l-.768-.131-.976-.164-.539-.133-.653-.168-.62-.148-.846-.268-1.014-.378-.763-.335-.67-.292-.69-.334-.822-.418-.676-.351-.758-.512-.553-.357-.658-.477" transform="translate(122 -262)"/><path class="c" d="M4876.488,2440.348l-.611-.823-.5-.742-.58-.922-.431-.792-.647-1.4-.476-1.139-.315-.94-.275-1.016-.257-1.091-.214-1.189" transform="translate(122 -262)"/><path class="c" d="M4872.234,2424.267v-.67l.106-.722.147-.732.221-.952.43-1.381.392-1.012.483-1.129.533-1.056.664-1.147.518-.827.635-.9.635-.816" transform="translate(122 -262)"/><path class="c" d="M4881.764,2408.528l1.107-.722,1.478-.812,1.055-.528,1.117-.484,1.373-.5,1.568-.466,1.347-.313.741-.132.746-.121" transform="translate(122 -262)"/><path class="a" d="M.094.072,4.921.1l.033,6.4L.127,6.47Z" transform="matrix(-0.719, 0.695, -0.695, -0.719, 5055.816, 2181.126)"/><path class="a" d="M16.339-.32A16.369,16.369,0,0,1,32.826,16.172,16.784,16.784,0,0,1,16.167,32.836,16.369,16.369,0,0,1-.319,16.344,16.784,16.784,0,0,1,16.339-.32Z" transform="matrix(0.695, 0.719, -0.719, 0.695, 5064.956, 2170.701)"/><path class="a" d="M.094.072,4.921.1l.033,6.4L.127,6.47Z" transform="matrix(-0.719, 0.695, -0.695, -0.719, 5082.153, 2207.855)"/><g class="a" transform="translate(5042.106 2196.394) rotate(-90)"><rect class="d" width="5.086" height="7.711"/><rect class="e" x="0.5" y="0.5" width="4.086" height="6.711"/></g><path class="a" d="M0,0,4.835-.025,4.8,6.382l-4.835.025Z" transform="matrix(0.695, 0.719, -0.719, 0.695, 5078.664, 2176.971)"/><path class="a" d="M0,0,4.835-.025,4.8,6.382l-4.835.025Z" transform="matrix(0.695, 0.719, -0.719, 0.695, 5051.414, 2203.072)"/><path class="a" d="M.008.006,4.358,0l0,7.016L0,7.022Z" transform="matrix(-0.017, 1, -1, -0.017, 5086.958, 2191.627)"/><g class="a" transform="translate(5066.998 2216.045) rotate(180)"><rect class="d" width="5.132" height="7.651"/><rect class="e" x="0.5" y="0.5" width="4.132" height="6.651"/></g><g class="a" transform="translate(5066.974 2178.293) rotate(180)"><rect class="d" width="5.132" height="6.651"/><rect class="e" x="0.5" y="0.5" width="4.132" height="5.651"/></g><path class="a" d="M.094.072,4.921.1l.033,6.4L.127,6.47Z" transform="matrix(-0.719, 0.695, -0.695, -0.719, 5055.816, 2181.126)"/><path class="a" d="M0,0,4.835-.025,4.8,6.382l-4.835.025Z" transform="matrix(0.695, 0.719, -0.719, 0.695, 5078.664, 2176.971)"/><path class="a" d="M0,0,4.835-.025,4.8,6.382l-4.835.025Z" transform="matrix(0.695, 0.719, -0.719, 0.695, 5051.414, 2203.072)"/><g class="a" transform="translate(5066.974 2178.293) rotate(180)"><rect class="d" width="5.132" height="6.651"/><rect class="e" x="0.5" y="0.5" width="4.132" height="5.651"/></g><path class="a" d="M.094.072,4.921.1l.033,6.4L.127,6.47Z" transform="matrix(-0.719, 0.695, -0.695, -0.719, 5082.153, 2207.855)"/><path class="b" d="M16.339-.32A16.369,16.369,0,0,1,32.826,16.172,16.784,16.784,0,0,1,16.167,32.836,16.369,16.369,0,0,1-.319,16.344,16.784,16.784,0,0,1,16.339-.32Z" transform="matrix(0.695, 0.719, -0.719, 0.695, 5064.956, 2170.701)"/><g class="a" transform="translate(5059.027 2187.769)"><ellipse class="d" cx="5.727" cy="5.925" rx="5.727" ry="5.925"/><ellipse class="e" cx="5.727" cy="5.925" rx="5.227" ry="5.425"/></g><g class="a" transform="translate(5061.174 2189.991)"><ellipse class="d" cx="3.579" cy="3.703" rx="3.579" ry="3.703"/><ellipse class="e" cx="3.579" cy="3.703" rx="3.079" ry="3.203"/></g><path class="c" d="M4898.817,2404.36l.8.151.939.22.886.245.937.327.69.271.821.35.531.239.835.444.5.293.407.284.522.38.487.345" transform="translate(167.953 -227.434)"/><path class="c" d="M4914.969,2413.79a18.457,18.457,0,0,1,1.646,2.6l.5,1.128.474,1.434.24,1.064.273,1.486" transform="translate(163.364 -229.879)"/><path class="c" d="M4917.9,2430.669l-.189,1.115-.323,1.153-.388,1.108-.448.974-.6,1.159-.5.876-.743,1.065" transform="translate(163.438 -234.258)"/><path class="c" d="M4906.712,2445.3c-1.176.831-1.255.871-1.255.871l-1.06.568-.862.442-1.585.586-1.317.372-.937.192-.805.118" transform="translate(167.932 -238.053)"/><path class="c" d="M4889.1,2448.35l-.55-.1-.7-.121-.385-.1-.468-.125-.443-.109-.605-.2-.726-.28-.546-.248-.479-.216-.494-.247-.589-.31-.484-.26-.542-.379-.4-.264-.471-.354" transform="translate(172.953 -237.986)"/><path class="c" d="M4875.265,2437.74l-.438-.609-.356-.55-.415-.683-.309-.587-.463-1.035-.341-.843-.226-.7-.2-.753-.185-.808-.153-.881" transform="translate(175.522 -234.161)"/><path class="c" d="M4872.234,2421.324v-.5l.076-.535.105-.542.158-.705.308-1.023.28-.75.346-.836.381-.782.475-.85.371-.613.455-.666.455-.6" transform="translate(175.507 -229.654)"/><path class="c" d="M4881.764,2407.471l.792-.535,1.058-.6.755-.391.8-.358.983-.37,1.122-.345.964-.232.53-.1.534-.09" transform="translate(172.799 -227.457)"/></g></svg>